<svg width="25" height="25" viewBox="0 0 25 25" fill="none" xmlns="http://www.w3.org/2000/svg">
<path d="M7.79652 0.914718C6.24585 1.54341 4.85443 2.46781 3.66129 3.6606C2.46781 4.85374 1.54445 6.24551 0.915409 7.79583C0.30813 9.29365 0 10.8764 0 12.5C0 14.1232 0.30813 15.706 0.915409 17.2031C1.54445 18.7538 2.46815 20.1456 3.66129 21.3384C4.85443 22.5318 6.24551 23.4555 7.79652 24.0842C9.29434 24.6922 10.8768 24.9993 12.5003 24.9993C14.1239 24.9993 15.706 24.6912 17.2038 24.0842C18.7541 23.4555 20.1463 22.5318 21.3391 21.3384C22.5325 20.1456 23.4562 18.7545 24.0849 17.2031C24.6922 15.706 24.9997 14.1232 24.9997 12.5C24.9997 10.8764 24.6919 9.29365 24.0849 7.79583C23.4562 6.24551 22.5318 4.8534 21.3391 3.6606C20.1463 2.46781 18.7555 1.54341 17.2038 0.914718C15.706 0.307785 14.1239 0 12.5003 0C10.8768 0 9.29434 0.307785 7.79652 0.914718ZM3.12414 17.762C2.52204 17.3841 1.96727 16.9489 1.47605 16.4363C0.725764 14.3249 0.598643 12.0392 1.09573 9.86949C1.32959 9.40833 1.59558 8.96548 1.89645 8.54129C1.98937 8.41037 2.07539 8.27392 2.17487 8.1468L4.99572 9.81595C4.99572 9.83806 4.99572 9.86224 4.99572 9.88677C4.98846 11.4039 5.14253 12.91 5.44928 14.3944C5.45031 14.4013 5.45135 14.4051 5.45273 14.4113L3.26507 17.8415C3.2174 17.8173 3.17008 17.7911 3.12414 17.762ZM11.5114 23.5609C11.9981 23.8093 12.4986 24.019 13.013 24.1896C10.8281 24.2846 8.62143 23.7727 6.67074 22.6534L11.3994 23.496C11.4357 23.5191 11.4727 23.5412 11.5114 23.5609ZM11.4941 22.7073L5.91389 21.7128C5.26101 20.92 4.67377 20.0813 4.16909 19.1849C4.04058 18.9569 3.89723 18.7355 3.78841 18.4975L5.974 15.0707C6.02236 15.0828 6.07625 15.0956 6.13739 15.1119C7.50463 15.4777 8.89605 15.7378 10.2971 15.9416C10.379 15.953 10.4474 15.963 10.5058 15.9692L13.1256 20.4989C12.671 21.138 12.2112 21.7736 11.7414 22.4023C11.6634 22.507 11.5804 22.6075 11.4941 22.7073ZM20.7781 20.7777C20.3338 21.2223 19.8623 21.623 19.3687 21.9802C19.2868 21.3259 19.1455 20.6848 18.9462 20.0585L21.7415 14.8438C22.5115 14.4932 23.2542 14.0956 23.9437 13.6026C24.0338 13.5387 24.1088 13.4672 24.1668 13.3892C23.9644 16.0839 22.8348 18.7213 20.7781 20.7777ZM20.6541 14.0147C20.758 14.213 20.8606 14.4134 20.9636 14.6165L18.2636 19.653C18.2481 19.6564 18.2332 19.6599 18.2177 19.662C16.7582 19.9345 15.287 20.0796 13.8033 20.0865L11.1089 15.4276C11.5283 14.649 11.9438 13.8672 12.356 13.0852C12.6358 12.5546 12.9107 12.0205 13.1853 11.4868L18.7617 10.9141C19.4447 11.9159 20.0917 12.9391 20.6541 14.0147ZM19.5227 8.04075C19.2581 8.73957 18.9749 9.43113 18.6933 10.1241L13.261 10.682C13.1961 10.5963 13.1287 10.512 13.0579 10.4315C12.4164 9.70507 11.7708 8.9831 11.1262 8.25906C11.1321 8.25181 11.1379 8.24628 11.1438 8.23972C10.8837 7.97995 10.6229 7.72018 10.3628 7.45972L11.8751 2.90651C11.9794 2.87888 12.0844 2.85573 12.1905 2.84433C13.0126 2.76074 13.8358 2.66609 14.66 2.61842C15.1647 2.59009 15.6722 2.57385 16.1855 2.61013L19.9273 6.82757C19.7984 7.2345 19.6727 7.64246 19.5227 8.04075ZM20.7781 4.22159C21.8102 5.25445 22.6096 6.43308 23.1747 7.6922C22.4755 7.21101 21.728 6.81514 20.9421 6.4925C20.8199 6.44206 20.6945 6.3975 20.567 6.35363L16.8839 2.20251C16.9095 2.02323 16.923 1.8436 16.9285 1.66259C18.3296 2.23291 19.643 3.08683 20.7781 4.22159ZM8.75131 1.44462C8.76582 1.45533 8.77273 1.46431 8.78102 1.46673C9.62285 1.75759 10.3887 2.18593 11.1107 2.69407L9.69781 6.94882C9.69056 6.95089 9.68365 6.95297 9.67674 6.95607C9.38761 7.0756 9.09295 7.18268 8.80831 7.31222C7.63555 7.84523 6.49215 8.43558 5.41508 9.14338L2.62705 7.49392C2.6312 7.40687 2.64605 7.31844 2.67576 7.23968C2.86299 6.74087 3.0471 6.23929 3.25886 5.7505C3.4219 5.37397 3.60775 5.01023 3.81052 4.65477C3.94317 4.5083 4.08065 4.36322 4.22228 4.22159C5.54634 2.89787 7.11118 1.95794 8.77722 1.40213C8.76859 1.4156 8.7596 1.42977 8.75131 1.44462Z" fill="white"/>
</svg>
