<svg width="25" height="25" viewBox="0 0 25 25" fill="none" xmlns="http://www.w3.org/2000/svg">
<path d="M18.6523 12.3047C16.8789 12.3047 15.2733 13.036 14.1205 14.2126C13.891 14.1779 13.6593 14.1602 13.4277 14.1602H11.4746V13.5407C13.0729 12.6715 14.1602 10.977 14.1602 9.0332V4.63867C14.1602 2.08091 12.0792 0 9.52148 0H2.19727C1.79277 0 1.46484 0.32793 1.46484 0.732422V1.70898C1.46484 3.61382 2.37227 5.327 3.91846 6.39326C3.9105 6.46982 3.90625 6.54751 3.90625 6.62617V9.0332C3.90625 10.9769 4.99351 12.6715 6.5918 13.5407V14.1602H4.63867C2.08091 14.1602 0 16.2411 0 18.7988V24.2676C0 24.6721 0.32793 25 0.732422 25H18.6523C22.1524 25 25 22.1524 25 18.6523C25 15.1522 22.1524 12.3047 18.6523 12.3047ZM22.9624 16.3598L21.015 17.0623L19.3848 15.8779V13.8245C20.9358 14.0588 22.2498 15.0255 22.9624 16.3598ZM15.1705 22.0719C14.3046 21.1903 13.7695 19.9827 13.7695 18.6523C13.7695 18.3411 13.7992 18.0366 13.8551 17.7413L15.8205 18.4503L16.4494 20.3857L15.1705 22.0719ZM17.7963 19.791L17.2672 18.1627L18.6523 17.1564L20.0375 18.1627L19.5084 19.791H17.7963ZM17.9199 13.8245V15.8779L16.2897 17.0623L14.3423 16.3598C15.0549 15.0255 16.3688 14.0588 17.9199 13.8245V13.8245ZM2.92969 1.70898V1.46484H9.52148C11.2349 1.46484 12.6346 2.82979 12.6925 4.5293C12.4541 4.44214 12.1968 4.39453 11.9285 4.39453C11.4865 4.39453 11.0584 4.52412 10.6906 4.76934L10.4161 4.95239C10.0052 5.22632 9.52695 5.37109 9.0332 5.37109C8.5394 5.37109 8.06123 5.22632 7.65034 4.95239L7.37573 4.76934C7.00796 4.52412 6.57988 4.39453 6.13789 4.39453C5.5229 4.39453 4.96519 4.64463 4.56113 5.04839C3.52944 4.2498 2.92969 3.04243 2.92969 1.70898V1.70898ZM5.37109 9.0332V6.62617C5.37109 6.20337 5.71504 5.85938 6.13789 5.85938C6.28975 5.85938 6.43686 5.90391 6.56323 5.98818L6.83784 6.17124C7.49014 6.60605 8.24927 6.83594 9.0332 6.83594C9.81709 6.83594 10.5763 6.6061 11.2286 6.17124L11.5032 5.98818C11.6296 5.90391 11.7767 5.85938 11.9286 5.85938C12.3514 5.85938 12.6954 6.20332 12.6954 6.62617V9.0332C12.6954 11.0525 11.0525 12.6953 9.03325 12.6953C7.01397 12.6953 5.37109 11.0525 5.37109 9.0332V9.0332ZM9.0332 14.1602C9.36709 14.1602 9.69351 14.1277 10.0098 14.0665V15.8691C10.0098 16.4076 9.57168 16.8457 9.0332 16.8457C8.49473 16.8457 8.05664 16.4076 8.05664 15.8691V14.0665C8.3729 14.1277 8.69932 14.1602 9.0332 14.1602ZM1.46484 21.9727H2.92969V23.5352H1.46484V21.9727ZM4.39453 23.5352V19.7754C4.39453 19.3709 4.0666 19.043 3.66211 19.043C3.25762 19.043 2.92969 19.3709 2.92969 19.7754V20.5078H1.46484V18.7988C1.46484 17.0488 2.88862 15.625 4.63867 15.625H6.5918V15.8691C6.5918 17.2153 7.68701 18.3105 9.0332 18.3105C10.3794 18.3105 11.4746 17.2153 11.4746 15.8691V15.625H13.0743C12.5837 16.5253 12.3047 17.5568 12.3047 18.6523C12.3047 20.6136 13.1989 22.3699 14.601 23.5352H4.39453ZM16.3411 22.9525L17.6279 21.2558H19.6768L20.9636 22.9525C20.2752 23.324 19.488 23.5352 18.6523 23.5352C17.8167 23.5352 17.0295 23.324 16.3411 22.9525V22.9525ZM22.1342 22.0719L20.8553 20.3857L21.4842 18.4503L23.4496 17.7413C23.5055 18.0366 23.5352 18.3411 23.5352 18.6523C23.5352 19.9827 23.0001 21.1903 22.1342 22.0719V22.0719Z" fill="white"/>
</svg>
