<svg width="24" height="24" viewBox="0 0 24 24" fill="none" xmlns="http://www.w3.org/2000/svg">
<path d="M11.9937 0.00415039C5.5516 0.00415039 0.329102 5.22665 0.329102 11.6688C0.329102 17.4466 4.53443 22.2316 10.0483 23.1582V14.1023H7.23445V10.8435H10.0483V8.44055C10.0483 5.65244 11.7512 4.13309 14.2387 4.13309C15.4301 4.13309 16.454 4.22186 16.7512 4.26096V7.17528L15.0259 7.17611C13.6734 7.17611 13.4126 7.8187 13.4126 8.76198V10.8418H16.6399L16.219 14.1007H13.4126V23.2361C19.1839 22.5337 23.6582 17.6268 23.6582 11.6654C23.6582 5.22665 18.4357 0.00415039 11.9937 0.00415039Z" fill="white"/>
</svg>
