<svg width="26" height="25" viewBox="0 0 26 25" fill="none" xmlns="http://www.w3.org/2000/svg">
<path d="M12.9364 10.3004C11.5904 10.3004 10.4944 11.3411 10.4944 12.6199C10.4944 13.8991 11.5904 14.9403 12.9364 14.9403C14.283 14.9403 15.3785 13.8991 15.3785 12.6199C15.3785 11.3411 14.283 10.3004 12.9364 10.3004ZM12.9364 10.3004C11.5904 10.3004 10.4944 11.3411 10.4944 12.6199C10.4944 13.8991 11.5904 14.9403 12.9364 14.9403C14.283 14.9403 15.3785 13.8991 15.3785 12.6199C15.3785 11.3411 14.283 10.3004 12.9364 10.3004ZM17.0047 6.51794H8.86865C7.57002 6.51794 6.51334 7.52179 6.51334 8.75549V16.4848C6.51334 17.7185 7.57002 18.7223 8.86865 18.7223H17.0047C18.3034 18.7223 19.36 17.7185 19.36 16.4848V8.75549C19.36 7.52179 18.3034 6.51794 17.0047 6.51794ZM12.9364 16.6378C10.6048 16.6378 8.70753 14.8354 8.70753 12.6199C8.70753 10.4049 10.6048 8.60243 12.9364 8.60243C15.2686 8.60243 17.1658 10.4049 17.1658 12.6199C17.1658 14.8354 15.2686 16.6378 12.9364 16.6378ZM17.3016 9.43325C16.7499 9.43325 16.301 9.00683 16.301 8.48264C16.301 7.95845 16.7499 7.53203 17.3016 7.53203C17.8534 7.53203 18.3023 7.95845 18.3023 8.48264C18.3023 9.00683 17.8534 9.43325 17.3016 9.43325ZM12.9364 10.3004C11.5904 10.3004 10.4944 11.3411 10.4944 12.6199C10.4944 13.8991 11.5904 14.9403 12.9364 14.9403C14.283 14.9403 15.3785 13.8991 15.3785 12.6199C15.3785 11.3411 14.283 10.3004 12.9364 10.3004ZM17.0047 6.51794H8.86865C7.57002 6.51794 6.51334 7.52179 6.51334 8.75549V16.4848C6.51334 17.7185 7.57002 18.7223 8.86865 18.7223H17.0047C18.3034 18.7223 19.36 17.7185 19.36 16.4848V8.75549C19.36 7.52179 18.3034 6.51794 17.0047 6.51794ZM12.9364 16.6378C10.6048 16.6378 8.70753 14.8354 8.70753 12.6199C8.70753 10.4049 10.6048 8.60243 12.9364 8.60243C15.2686 8.60243 17.1658 10.4049 17.1658 12.6199C17.1658 14.8354 15.2686 16.6378 12.9364 16.6378ZM17.3016 9.43325C16.7499 9.43325 16.301 9.00683 16.301 8.48264C16.301 7.95845 16.7499 7.53203 17.3016 7.53203C17.8534 7.53203 18.3023 7.95845 18.3023 8.48264C18.3023 9.00683 17.8534 9.43325 17.3016 9.43325ZM12.9364 10.3004C11.5904 10.3004 10.4944 11.3411 10.4944 12.6199C10.4944 13.8991 11.5904 14.9403 12.9364 14.9403C14.283 14.9403 15.3785 13.8991 15.3785 12.6199C15.3785 11.3411 14.283 10.3004 12.9364 10.3004ZM12.3228 0.955566C5.88061 0.955566 0.658203 6.17797 0.658203 12.6201C0.658203 19.0623 5.8806 24.2847 12.3228 24.2847H13.5506C19.9928 24.2847 25.2152 19.0623 25.2152 12.6201C25.2152 6.17797 19.9928 0.955566 13.5506 0.955566H12.3228ZM21.1469 16.4848C21.1469 18.6547 19.2889 20.4198 17.0047 20.4198H8.86865C6.58446 20.4198 4.72651 18.6547 4.72651 16.4848V8.75549C4.72651 6.58551 6.58446 4.82046 8.86865 4.82046H17.0047C19.2889 4.82046 21.1469 6.58551 21.1469 8.75549V16.4848ZM17.0047 6.51794H8.86865C7.57002 6.51794 6.51334 7.52179 6.51334 8.75549V16.4848C6.51334 17.7185 7.57002 18.7223 8.86865 18.7223H17.0047C18.3034 18.7223 19.36 17.7185 19.36 16.4848V8.75549C19.36 7.52179 18.3034 6.51794 17.0047 6.51794ZM12.9364 16.6378C10.6048 16.6378 8.70753 14.8354 8.70753 12.6199C8.70753 10.4049 10.6048 8.60243 12.9364 8.60243C15.2686 8.60243 17.1658 10.4049 17.1658 12.6199C17.1658 14.8354 15.2686 16.6378 12.9364 16.6378ZM17.3016 9.43325C16.7499 9.43325 16.301 9.00683 16.301 8.48264C16.301 7.95845 16.7499 7.53203 17.3016 7.53203C17.8534 7.53203 18.3023 7.95845 18.3023 8.48264C18.3023 9.00683 17.8534 9.43325 17.3016 9.43325ZM12.9364 10.3004C11.5904 10.3004 10.4944 11.3411 10.4944 12.6199C10.4944 13.8991 11.5904 14.9403 12.9364 14.9403C14.283 14.9403 15.3785 13.8991 15.3785 12.6199C15.3785 11.3411 14.283 10.3004 12.9364 10.3004ZM12.9364 10.3004C11.5904 10.3004 10.4944 11.3411 10.4944 12.6199C10.4944 13.8991 11.5904 14.9403 12.9364 14.9403C14.283 14.9403 15.3785 13.8991 15.3785 12.6199C15.3785 11.3411 14.283 10.3004 12.9364 10.3004ZM12.9364 10.3004C11.5904 10.3004 10.4944 11.3411 10.4944 12.6199C10.4944 13.8991 11.5904 14.9403 12.9364 14.9403C14.283 14.9403 15.3785 13.8991 15.3785 12.6199C15.3785 11.3411 14.283 10.3004 12.9364 10.3004ZM17.0047 6.51794H8.86865C7.57002 6.51794 6.51334 7.52179 6.51334 8.75549V16.4848C6.51334 17.7185 7.57002 18.7223 8.86865 18.7223H17.0047C18.3034 18.7223 19.36 17.7185 19.36 16.4848V8.75549C19.36 7.52179 18.3034 6.51794 17.0047 6.51794ZM12.9364 16.6378C10.6048 16.6378 8.70753 14.8354 8.70753 12.6199C8.70753 10.4049 10.6048 8.60243 12.9364 8.60243C15.2686 8.60243 17.1658 10.4049 17.1658 12.6199C17.1658 14.8354 15.2686 16.6378 12.9364 16.6378ZM17.3016 9.43325C16.7499 9.43325 16.301 9.00683 16.301 8.48264C16.301 7.95845 16.7499 7.53203 17.3016 7.53203C17.8534 7.53203 18.3023 7.95845 18.3023 8.48264C18.3023 9.00683 17.8534 9.43325 17.3016 9.43325ZM12.9364 10.3004C11.5904 10.3004 10.4944 11.3411 10.4944 12.6199C10.4944 13.8991 11.5904 14.9403 12.9364 14.9403C14.283 14.9403 15.3785 13.8991 15.3785 12.6199C15.3785 11.3411 14.283 10.3004 12.9364 10.3004ZM12.9364 10.3004C11.5904 10.3004 10.4944 11.3411 10.4944 12.6199C10.4944 13.8991 11.5904 14.9403 12.9364 14.9403C14.283 14.9403 15.3785 13.8991 15.3785 12.6199C15.3785 11.3411 14.283 10.3004 12.9364 10.3004ZM12.9364 10.3004C11.5904 10.3004 10.4944 11.3411 10.4944 12.6199C10.4944 13.8991 11.5904 14.9403 12.9364 14.9403C14.283 14.9403 15.3785 13.8991 15.3785 12.6199C15.3785 11.3411 14.283 10.3004 12.9364 10.3004ZM17.0047 6.51794H8.86865C7.57002 6.51794 6.51334 7.52179 6.51334 8.75549V16.4848C6.51334 17.7185 7.57002 18.7223 8.86865 18.7223H17.0047C18.3034 18.7223 19.36 17.7185 19.36 16.4848V8.75549C19.36 7.52179 18.3034 6.51794 17.0047 6.51794ZM12.9364 16.6378C10.6048 16.6378 8.70753 14.8354 8.70753 12.6199C8.70753 10.4049 10.6048 8.60243 12.9364 8.60243C15.2686 8.60243 17.1658 10.4049 17.1658 12.6199C17.1658 14.8354 15.2686 16.6378 12.9364 16.6378ZM17.3016 9.43325C16.7499 9.43325 16.301 9.00683 16.301 8.48264C16.301 7.95845 16.7499 7.53203 17.3016 7.53203C17.8534 7.53203 18.3023 7.95845 18.3023 8.48264C18.3023 9.00683 17.8534 9.43325 17.3016 9.43325ZM12.9364 10.3004C11.5904 10.3004 10.4944 11.3411 10.4944 12.6199C10.4944 13.8991 11.5904 14.9403 12.9364 14.9403C14.283 14.9403 15.3785 13.8991 15.3785 12.6199C15.3785 11.3411 14.283 10.3004 12.9364 10.3004Z" fill="white"/>
</svg>
