<svg width="24" height="25" viewBox="0 0 24 25" fill="none" xmlns="http://www.w3.org/2000/svg">
<path d="M11.6646 0.955566C5.22339 0.955566 0 6.17895 0 12.6201C0 19.0613 5.22339 24.2847 11.6646 24.2847C18.1057 24.2847 23.3291 19.0613 23.3291 12.6201C23.3291 6.17895 18.1057 0.955566 11.6646 0.955566ZM16.9905 10.0503C16.9956 10.1652 16.9981 10.2805 16.9981 10.3964C16.9981 13.9342 14.3052 18.0138 9.38045 18.014H9.38063H9.38045C7.86845 18.014 6.46146 17.5708 5.2766 16.8114C5.48609 16.8361 5.69932 16.8484 5.91522 16.8484C7.16967 16.8484 8.3241 16.4205 9.24055 15.7023C8.06851 15.6806 7.08032 14.9065 6.7393 13.8427C6.90252 13.874 7.07036 13.8911 7.24247 13.8911C7.48685 13.8911 7.72357 13.8582 7.94855 13.7968C6.72346 13.5515 5.8006 12.4688 5.8006 11.1724C5.8006 11.1603 5.8006 11.1494 5.80095 11.1382C6.16173 11.3388 6.57431 11.4595 7.01358 11.473C6.29469 10.9933 5.82213 10.1733 5.82213 9.24442C5.82213 8.75389 5.95473 8.29433 6.18469 7.89866C7.505 9.5187 9.47817 10.5841 11.7034 10.6961C11.6574 10.4999 11.6338 10.2956 11.6338 10.0856C11.6338 8.60759 12.8329 7.40849 14.3114 7.40849C15.0816 7.40849 15.7771 7.73403 16.2657 8.25446C16.8757 8.13414 17.4484 7.9113 17.9658 7.60463C17.7656 8.22954 17.3413 8.75389 16.7885 9.08548C17.3301 9.02069 17.8462 8.87706 18.3259 8.66383C17.9676 9.20082 17.5132 9.67248 16.9905 10.0503Z" fill="white"/>
</svg>
