<svg width="24" height="25" viewBox="0 0 24 25" fill="none" xmlns="http://www.w3.org/2000/svg">
<path fill-rule="evenodd" clip-rule="evenodd" d="M23.5445 12.6201C23.5445 19.0623 18.322 24.2847 11.8799 24.2847C5.43773 24.2847 0.215332 19.0623 0.215332 12.6201C0.215332 6.17797 5.43773 0.955566 11.8799 0.955566C18.322 0.955566 23.5445 6.17797 23.5445 12.6201ZM12.3547 17.7361H11.4392C11.4392 17.7361 9.41911 17.8577 7.64025 16.0057C5.70025 13.9856 3.98689 9.9771 3.98689 9.9771C3.98689 9.9771 3.88812 9.71428 3.99541 9.58723C4.11601 9.44438 4.44455 9.43523 4.44455 9.43523L6.63303 9.42089C6.63303 9.42089 6.8393 9.4554 6.98693 9.56373C7.10857 9.65314 7.17677 9.82032 7.17677 9.82032C7.17677 9.82032 7.53046 10.7148 7.99893 11.5241C8.91321 13.104 9.33906 13.4496 9.6495 13.2803C10.1017 13.0335 9.96618 11.0469 9.96618 11.0469C9.96618 11.0469 9.97449 10.3258 9.73849 10.0048C9.55572 9.75586 9.21097 9.6833 9.05876 9.66292C8.93567 9.64649 9.13778 9.36059 9.39977 9.23229C9.79359 9.03933 10.4891 9.02831 11.3109 9.03683C11.9511 9.04328 12.1353 9.0832 12.3857 9.14371C12.9665 9.28395 12.9484 9.73334 12.9093 10.7029C12.8976 10.9927 12.8841 11.3288 12.8841 11.7171C12.8841 11.8044 12.8815 11.8975 12.8789 11.9933C12.8654 12.4899 12.8498 13.0584 13.1766 13.2697C13.3442 13.3778 13.7543 13.2859 14.7798 11.5445C15.2659 10.7192 15.6305 9.74879 15.6305 9.74879C15.6305 9.74879 15.7101 9.57579 15.8338 9.50156C15.9604 9.42587 16.1311 9.44916 16.1311 9.44916L18.4342 9.43482C18.4342 9.43482 19.1262 9.35227 19.2383 9.66458C19.3558 9.99249 18.9796 10.7581 18.0387 12.0121C17.1452 13.2031 16.711 13.6408 16.7518 14.0285C16.7816 14.3112 17.0638 14.5672 17.6046 15.0691C18.7382 16.1214 19.0403 16.6739 19.1121 16.8052C19.118 16.8159 19.1223 16.8237 19.1254 16.8289C19.6327 17.6702 18.5627 17.7361 18.5627 17.7361L16.5173 17.7646C16.5173 17.7646 16.0777 17.8517 15.4992 17.4543C15.1967 17.2467 14.901 16.9076 14.6192 16.5846C14.1884 16.0907 13.7903 15.6343 13.4505 15.742C12.8803 15.9229 12.8982 17.1514 12.8982 17.1514C12.8982 17.1514 12.9024 17.4138 12.7724 17.5535C12.6312 17.7057 12.3547 17.7361 12.3547 17.7361Z" fill="white"/>
</svg>
