<svg width="24" height="25" viewBox="0 0 24 25" fill="none" xmlns="http://www.w3.org/2000/svg">
<g clip-path="url(#clip0_70_165)">
<path d="M10.7559 14.8055L14.5502 12.6201L10.7559 10.4348V14.8055Z" fill="white"/>
<path d="M12.209 0.955566C5.76782 0.955566 0.544434 6.17895 0.544434 12.6201C0.544434 19.0613 5.76782 24.2847 12.209 24.2847C18.6502 24.2847 23.8736 19.0613 23.8736 12.6201C23.8736 6.17895 18.6502 0.955566 12.209 0.955566ZM19.4976 12.6321C19.4976 12.6321 19.4976 14.9977 19.1975 16.1384C19.0293 16.7628 18.537 17.2551 17.9126 17.4231C16.7719 17.7234 12.209 17.7234 12.209 17.7234C12.209 17.7234 7.65804 17.7234 6.5054 17.4112C5.88102 17.2432 5.38871 16.7507 5.22051 16.1263C4.92025 14.9977 4.92025 12.6201 4.92025 12.6201C4.92025 12.6201 4.92025 10.2547 5.22051 9.11396C5.38853 8.48958 5.89294 7.98517 6.5054 7.81715C7.64612 7.51688 12.209 7.51688 12.209 7.51688C12.209 7.51688 16.7719 7.51688 17.9126 7.82907C18.537 7.99709 19.0293 8.48958 19.1975 9.11396C19.5097 10.2547 19.4976 12.6321 19.4976 12.6321Z" fill="white"/>
</g>
<defs>
<clipPath id="clip0_70_165">
<rect width="23.3291" height="23.3291" fill="white" transform="translate(0.544434 0.955566)"/>
</clipPath>
</defs>
</svg>
