<svg width="23" height="23" viewBox="0 0 23 23" fill="none" xmlns="http://www.w3.org/2000/svg">
<g clip-path="url(#clip0_70_64)">
<path d="M15.73 6.4707H10.0321C9.52987 6.4707 9.1228 6.87772 9.1228 7.37996C9.1228 7.88216 9.52982 8.28923 10.0321 8.28923H15.73C16.2325 8.28923 16.6393 7.88221 16.6393 7.37996C16.6392 6.87772 16.2322 6.4707 15.73 6.4707Z" fill="white"/>
<path d="M17.9122 10.8655H10.0321C9.52987 10.8655 9.1228 11.2725 9.1228 11.7748C9.1228 12.277 9.52982 12.684 10.0321 12.684H17.9122C18.4144 12.684 18.8214 12.277 18.8214 11.7748C18.8214 11.2725 18.4144 10.8655 17.9122 10.8655Z" fill="white"/>
<path d="M22.034 0.772949H5.94038C5.43818 0.772949 5.03112 1.17997 5.03112 1.68221V10.2594H3.42482C1.5363 10.2594 0 11.796 0 13.6842V18.7457C0 20.6342 1.5363 22.1705 3.42482 22.1705C3.57937 22.1705 3.73155 22.1602 3.88037 22.1402H18.882C21.1212 22.1402 22.9433 20.3184 22.9433 18.0789V1.68221C22.9433 1.17997 22.5362 0.772949 22.034 0.772949ZM5.03116 18.7457C5.03116 19.5249 4.47317 20.1765 3.73581 20.3217H3.42486V20.352C2.53895 20.352 1.81852 19.6312 1.81852 18.7456V13.6842C1.81852 12.7986 2.53926 12.0779 3.42486 12.0779H5.03121V18.7457H5.03116ZM21.1248 18.0789C21.1248 19.2946 20.0979 20.3217 18.882 20.3217H6.46503C6.71081 19.8498 6.84964 19.3136 6.84964 18.7457V2.59143H21.1248V18.0789Z" fill="white"/>
<path d="M15.73 14.9878H10.0321C9.52987 14.9878 9.1228 15.3948 9.1228 15.8971C9.1228 16.3993 9.52982 16.8063 10.0321 16.8063H15.73C16.2325 16.8063 16.6393 16.3993 16.6393 15.8971C16.6392 15.3948 16.2322 14.9878 15.73 14.9878Z" fill="white"/>
</g>
<defs>
<clipPath id="clip0_70_64">
<rect width="22.9433" height="22.9433" fill="white"/>
</clipPath>
</defs>
</svg>
