<svg width="24" height="23" viewBox="0 0 24 23" fill="none" xmlns="http://www.w3.org/2000/svg">
<g clip-path="url(#clip0_70_77)">
<path d="M8.33543 14.8327H8.33648C8.33736 14.8327 8.33823 14.8325 8.33911 14.8325H20.5258C20.8258 14.8325 21.0896 14.6335 21.1721 14.345L23.8607 4.93466C23.9187 4.73179 23.878 4.51368 23.7511 4.34529C23.6241 4.1769 23.4254 4.07782 23.2145 4.07782H6.78525L6.30476 1.91552C6.23632 1.60796 5.9636 1.38916 5.64852 1.38916H1.61553C1.24426 1.38916 0.943359 1.69006 0.943359 2.06133C0.943359 2.43259 1.24426 2.73349 1.61553 2.73349H5.10939C5.19446 3.11666 7.40876 13.0812 7.53619 13.6544C6.82184 13.965 6.32069 14.6772 6.32069 15.5046C6.32069 16.6165 7.22531 17.5211 8.33718 17.5211H20.5258C20.8971 17.5211 21.198 17.2202 21.198 16.849C21.198 16.4777 20.8971 16.1768 20.5258 16.1768H8.33718C7.96662 16.1768 7.66502 15.8752 7.66502 15.5046C7.66502 15.1346 7.96557 14.8335 8.33543 14.8327ZM22.3233 5.42216L20.0187 13.4881H8.87632L7.08388 5.42216H22.3233Z" fill="white"/>
<path d="M7.66504 19.5377C7.66504 20.6496 8.56966 21.5542 9.68154 21.5542C10.7934 21.5542 11.698 20.6496 11.698 19.5377C11.698 18.4259 10.7934 17.5212 9.68154 17.5212C8.56966 17.5212 7.66504 18.4259 7.66504 19.5377ZM9.68154 18.8656C10.0521 18.8656 10.3537 19.1672 10.3537 19.5377C10.3537 19.9083 10.0521 20.2099 9.68154 20.2099C9.31097 20.2099 9.00937 19.9083 9.00937 19.5377C9.00937 19.1672 9.31097 18.8656 9.68154 18.8656Z" fill="white"/>
<path d="M17.165 19.5377C17.165 20.6496 18.0697 21.5542 19.1815 21.5542C20.2934 21.5542 21.198 20.6496 21.198 19.5377C21.198 18.4259 20.2934 17.5212 19.1815 17.5212C18.0697 17.5212 17.165 18.4259 17.165 19.5377ZM19.1815 18.8656C19.5521 18.8656 19.8537 19.1672 19.8537 19.5377C19.8537 19.9083 19.5521 20.2099 19.1815 20.2099C18.811 20.2099 18.5094 19.9083 18.5094 19.5377C18.5094 19.1672 18.811 18.8656 19.1815 18.8656Z" fill="white"/>
</g>
<defs>
<clipPath id="clip0_70_77">
<rect width="22.9433" height="22.9433" fill="white" transform="translate(0.943359)"/>
</clipPath>
</defs>
</svg>
