<svg width="24" height="23" viewBox="0 0 24 23" fill="none" xmlns="http://www.w3.org/2000/svg">
<g clip-path="url(#clip0_70_81)">
<path d="M20.9922 5.74563L20.5169 6.22098C20.1285 6.60936 19.6121 6.82325 19.0628 6.82325C18.5135 6.82325 17.9972 6.60936 17.6088 6.22098C17.2204 5.83261 17.0065 5.3162 17.0065 4.76696C17.0065 4.21771 17.2204 3.7013 17.6088 3.31288L18.0842 2.83753L15.2466 0L0.886475 14.3601L3.724 17.1976L4.19936 16.7223C4.58773 16.3339 5.10414 16.12 5.65343 16.12C6.20272 16.12 6.71904 16.3339 7.10746 16.7223C7.49584 17.1107 7.70972 17.6271 7.70972 18.1763C7.70972 18.7256 7.49584 19.242 7.10746 19.6304L6.6321 20.1057L9.46963 22.9433L23.8297 8.58315L20.9922 5.74563ZM8.48688 20.059C8.85599 19.5059 9.05428 18.8564 9.05428 18.1763C9.05428 17.2679 8.70054 16.4139 8.05817 15.7716C7.41585 15.1292 6.5618 14.7755 5.65343 14.7755C4.97338 14.7755 4.3238 14.9738 3.77069 15.3429L2.7879 14.3601L15.2466 1.90142L16.2293 2.88422C15.8602 3.43732 15.6619 4.0869 15.6619 4.76696C15.6619 5.67537 16.0157 6.52937 16.658 7.1717C17.3004 7.81406 18.1544 8.1678 19.0628 8.1678C19.7428 8.1678 20.3924 7.96951 20.9455 7.6004L21.9283 8.58315L9.46963 21.0418L8.48688 20.059Z" fill="white"/>
<path d="M14.283 8.59226L13.3323 9.54297L14.2868 10.4975L15.2375 9.54677L14.283 8.59226Z" fill="white"/>
<path d="M12.3743 6.6826L11.4236 7.6333L12.3781 8.5878L13.3288 7.6371L12.3743 6.6826Z" fill="white"/>
<path d="M16.1922 10.5012L15.2415 11.4519L16.196 12.4064L17.1467 11.4557L16.1922 10.5012Z" fill="white"/>
</g>
<defs>
<clipPath id="clip0_70_81">
<rect width="22.9433" height="22.9433" fill="white" transform="translate(0.886475)"/>
</clipPath>
</defs>
</svg>
