<svg width="23" height="23" viewBox="0 0 23 23" fill="none" xmlns="http://www.w3.org/2000/svg">
<g clip-path="url(#clip0_70_60)">
<path d="M19.5833 3.35998C17.4166 1.19323 14.5358 0 11.4717 0C8.40747 0 5.52665 1.19323 3.35998 3.35994C1.19323 5.52665 0 8.40747 0 11.4717C0 14.5358 1.19323 17.4166 3.35998 19.5833C5.52665 21.75 8.40747 22.9433 11.4717 22.9433C14.5359 22.9433 17.4166 21.75 19.5834 19.5833C21.75 17.4166 22.9433 14.5358 22.9433 11.4716C22.9433 8.40742 21.75 5.52665 19.5833 3.35998ZM4.31155 4.31155C5.32029 3.30281 6.50452 2.5334 7.79526 2.0312C7.45147 2.4604 7.12977 2.95373 6.83495 3.50858C6.49255 4.15296 6.19711 4.86067 5.95105 5.61658C5.09866 5.47512 4.30886 5.30116 3.60326 5.097C3.82441 4.82517 4.06034 4.56276 4.31155 4.31155ZM2.78855 6.25496C3.61384 6.51922 4.55765 6.74206 5.5875 6.91857C5.30071 8.13591 5.13191 9.44588 5.09162 10.7988H1.36835C1.47411 9.17517 1.96174 7.6256 2.78855 6.25496ZM2.71529 16.5639C1.93311 15.2241 1.47093 13.7192 1.36831 12.1445H5.09418C5.13818 13.4588 5.30362 14.7315 5.58074 15.917C4.52973 16.0873 3.56222 16.3045 2.71529 16.5639ZM4.31155 18.6318C4.02565 18.3458 3.75939 18.0456 3.51252 17.7331C4.24397 17.5303 5.06169 17.3585 5.94191 17.2207C6.18972 17.9871 6.48834 18.7042 6.83491 19.3565C7.15621 19.9612 7.50945 20.4925 7.88842 20.9476C6.56156 20.4464 5.34454 19.6647 4.31155 18.6318ZM10.7988 21.4249C9.77672 21.1386 8.80987 20.2053 8.02335 18.7251C7.74825 18.2074 7.50663 17.6426 7.29965 17.0407C8.40783 16.9188 9.58703 16.8467 10.7988 16.8297V21.4249V21.4249ZM10.7988 15.4839C9.45497 15.5022 8.14519 15.5866 6.91857 15.7307C6.648 14.6122 6.4852 13.4015 6.44053 12.1445H10.7988V15.4839H10.7988ZM10.7988 10.7988H6.43797C6.4788 9.50668 6.64419 8.26223 6.92319 7.11525C8.14196 7.26761 9.44901 7.36028 10.7988 7.3868V10.7988ZM10.7988 6.0409C9.58233 6.01639 8.40572 5.93707 7.30538 5.80766C7.51111 5.21203 7.75085 4.65297 8.02335 4.14001C8.80983 2.65981 9.77672 1.72648 10.7988 1.44019V6.0409ZM20.1971 6.32644C20.9981 7.67942 21.471 9.20327 21.575 10.7988H17.8518C17.8119 9.46143 17.6464 8.16616 17.3656 6.96083C18.4022 6.79342 19.3577 6.58043 20.1971 6.32644ZM18.6317 4.31155C18.9019 4.58172 19.1543 4.86492 19.3896 5.15893C18.6694 5.3556 17.8673 5.52253 17.0055 5.65687C16.7569 4.88576 16.4569 4.16443 16.1084 3.50858C15.8136 2.95373 15.4919 2.4604 15.1481 2.0312C16.4387 2.5334 17.623 3.30281 18.6317 4.31155ZM12.1445 12.1445H16.5028C16.4578 13.4113 16.2928 14.6311 16.0184 15.7569C14.7998 15.6053 13.4934 15.5135 12.1445 15.4877V12.1445ZM12.1445 10.7988V7.39128C13.4891 7.37363 14.7999 7.28997 16.0277 7.14644C16.3022 8.28477 16.4649 9.51838 16.5053 10.7988H12.1445ZM12.1444 1.44019H12.1445C13.1665 1.72648 14.1334 2.65981 14.9199 4.14001C15.1968 4.66103 15.4398 5.22973 15.6477 5.83602C14.538 5.95755 13.3574 6.02912 12.1444 6.04547V1.44019V1.44019ZM12.1445 21.4249V16.8336C13.3598 16.8575 14.5355 16.9361 15.6355 17.0647C15.4303 17.6576 15.1913 18.2143 14.92 18.7251C14.1334 20.2053 13.1666 21.1386 12.1445 21.4249ZM18.6317 18.6318C17.5988 19.6647 16.3817 20.4464 15.0548 20.9475C15.4338 20.4924 15.7871 19.9612 16.1084 19.3565C16.4498 18.7139 16.7446 18.0083 16.9902 17.2546C17.8625 17.3986 18.6694 17.5766 19.3883 17.786C19.1534 18.0794 18.9014 18.362 18.6317 18.6318ZM20.1922 16.6253C19.3571 16.3569 18.3997 16.131 17.3545 15.9527C17.6366 14.7572 17.8047 13.472 17.8492 12.1445H21.5751C21.4708 13.7433 20.9962 15.2703 20.1922 16.6253Z" fill="white"/>
</g>
<defs>
<clipPath id="clip0_70_60">
<rect width="22.9433" height="22.9433" fill="white"/>
</clipPath>
</defs>
</svg>
